<svg xmlns="http://www.w3.org/2000/svg" width="27" height="31" viewBox="0 0 27 31" fill="none"><path d="M26.7842 28.6268C26.8604 28.5164 26.918 28.3946 26.9549 28.2662C27.015 28.0929 27.015 27.9049 26.9549 27.7316L26.8664 27.4954C26.8032 27.4146 26.74 27.34 26.6831 27.2592C26.6587 27.2313 26.6311 27.2062 26.6009 27.1846C26.5708 27.133 26.5348 27.085 26.4935 27.0416C26.2617 26.7577 26.0058 26.4936 25.7287 26.2521C24.9892 25.5559 24.1992 24.9094 23.4344 24.2442C23.0363 23.9023 22.6318 23.5666 22.2399 23.2185C22.0503 23.0444 21.8607 22.8704 21.6774 22.6901C21.5283 22.5456 21.37 22.4106 21.2034 22.286C21.0997 22.2143 20.9897 22.1519 20.8747 22.0995C20.72 22.0072 20.5436 21.9558 20.3628 21.9503C20.223 21.9475 20.0841 21.9719 19.9539 22.022C19.8238 22.0722 19.705 22.1471 19.6043 22.2425C19.4739 22.3645 19.3799 22.5193 19.3326 22.6901C19.3326 22.7771 19.3009 22.8641 19.2883 22.9574C19.2811 23.1423 19.3271 23.3255 19.421 23.4858C19.5121 23.6776 19.6337 23.8539 19.7813 24.008C19.8698 24.1012 19.9709 24.182 20.0594 24.269C20.2553 24.4493 20.4449 24.642 20.6472 24.8099C21.1655 25.2388 21.6963 25.6429 22.2336 26.0532L22.5496 26.2894L22.379 26.2521C21.867 26.1526 21.3677 26.0159 20.8684 25.8853C20.6282 25.8294 20.3944 25.7361 20.1542 25.6677C19.914 25.5994 19.7118 25.5372 19.5222 25.4564L18.0622 24.8845L17.2089 24.4866L16.5769 24.1945L16.3431 24.0826L15.2623 23.4609C14.9905 23.3055 14.7061 23.1625 14.4406 22.9947L12.4813 21.7514C12.4055 21.7079 12.3423 21.6519 12.2728 21.6084L11.6407 21.1733C11.2994 20.9308 10.9518 20.6884 10.6168 20.4335C9.88123 19.8501 9.17863 19.2275 8.51217 18.5686C7.80941 17.8679 7.15686 17.1201 6.55919 16.3307C6.29374 15.9825 6.04725 15.6282 5.80708 15.2676C5.5669 14.9071 5.42786 14.7019 5.25721 14.4098C5.08656 14.1176 4.9159 13.7881 4.75157 13.5146L4.17011 12.5075C4.06899 12.3273 3.9805 12.1408 3.89202 11.9543C3.68977 11.5564 3.49384 11.1586 3.29791 10.7669C3.21574 10.5991 3.12726 10.4437 3.05773 10.2758L2.24241 8.36739C1.54859 6.58467 1.07126 4.7276 0.820335 2.83475C0.774731 2.42193 0.762053 2.00623 0.782415 1.59146C0.782415 1.18739 0.851954 0.783323 0.896194 0.385471C0.897881 0.335972 0.889509 0.286631 0.871603 0.240343C0.853697 0.194054 0.826597 0.151731 0.791885 0.115854C0.757174 0.079977 0.715542 0.05126 0.669426 0.0313759C0.623308 0.0114918 0.573627 0.000852585 0.523279 5.53131e-05C0.422092 -0.00163078 0.324301 0.0358715 0.25099 0.10449C0.177677 0.173109 0.134726 0.267338 0.131422 0.366823C0.0808601 0.801973 0.0366287 1.24335 0.00502777 1.69093C-0.0128002 2.19813 0.0168095 2.70587 0.093502 3.20774C0.225574 4.23447 0.424015 5.25188 0.687614 6.2538C0.807699 6.72625 0.946743 7.2049 1.09843 7.67735C1.19956 8.00682 1.307 8.3363 1.43341 8.65956C1.55981 8.98281 1.75575 9.48013 1.91376 9.90285C1.99592 10.108 2.07177 10.3069 2.15393 10.5245C2.2361 10.7421 2.2361 10.7421 2.28035 10.8477C2.44468 11.1959 2.60267 11.544 2.76068 11.8921C2.91869 12.2402 3.08302 12.5821 3.24103 12.9303C3.28527 13.0235 3.32951 13.1168 3.38008 13.21C3.47488 13.3965 3.58233 13.5706 3.67713 13.7508L4.30916 14.9195C4.45453 15.1868 4.61253 15.4541 4.77686 15.7152C5.05495 16.1815 5.3457 16.629 5.65539 17.0704C6.2755 17.9438 6.95546 18.7746 7.69054 19.557C8.4164 20.33 9.19565 21.0529 10.0227 21.7203C10.3388 21.9876 10.6548 22.2301 11.0087 22.4787L11.5396 22.889L11.7292 23.032L13.6253 24.2753C13.916 24.468 14.2573 24.642 14.5354 24.8223L15.5024 25.4004C15.5846 25.4502 15.6731 25.4875 15.7616 25.531L16.4505 25.8791C16.7918 26.0532 17.1331 26.2397 17.487 26.3889L18.6752 26.8924L19.0229 27.0416C19.1682 27.1038 19.3325 27.1473 19.4842 27.2032C19.8066 27.3151 20.1163 27.4394 20.4576 27.5327L21.6648 27.8684C21.9934 27.9616 22.3347 28.0238 22.6697 28.0984L23.0995 28.1916L22.3094 28.4651C21.7785 28.6392 21.235 28.8008 20.6914 28.9563L20.0025 29.1614C19.5964 29.2734 19.1993 29.4147 18.8143 29.5841C18.6997 29.6448 18.6036 29.7343 18.5359 29.8435C18.4681 29.9528 18.4312 30.0778 18.4288 30.2058C18.4278 30.3399 18.4604 30.4723 18.5236 30.5912C18.5906 30.7008 18.6839 30.7925 18.7953 30.8585C19.0297 30.994 19.3087 31.0342 19.5727 30.9704H19.8066L20.3881 30.8709C20.7167 30.8088 21.0201 30.7342 21.3614 30.6533C22.044 30.4855 22.7266 30.3177 23.4028 30.1063C24.1992 29.8576 25.0019 29.6028 25.773 29.2857C25.9789 29.2047 26.1776 29.1069 26.3671 28.9935C26.5364 28.8911 26.6826 28.7557 26.7968 28.5957" fill="#303030"></path></svg>