<svg xmlns="http://www.w3.org/2000/svg" width="39" height="40" viewBox="0 0 39 40" fill="none"><path d="M13.7754 5.569C12.2166 6.70654 11.0057 8.25598 10.2784 10.0434C9.57743 11.8424 8.96913 13.6761 8.45592 15.5374C7.7444 18.0697 7.12909 20.6442 6.46128 23.2177C6.11765 24.5972 6.59748 25.1026 7.89569 24.5642C8.68775 24.2708 9.35787 23.7192 9.79791 22.9982C12.0748 18.0779 14.5337 13.1447 15.6184 7.79527L15.7544 7.41391C15.8514 6.72889 16.3275 5.85266 15.5745 5.48784C14.8216 5.12301 14.1718 5.53968 13.7754 5.569Z" fill="#0081FB"></path><path d="M27.4447 12.4459C24.9175 14.3018 22.6575 16.4964 20.7281 18.9679C19.0237 21.22 17.447 23.5633 15.8704 25.9066C15.6599 26.3547 15.5232 26.8338 15.4654 27.3254C16.0336 27.3764 16.6056 27.3635 17.1709 27.287C17.6095 27.1615 18.0016 26.9101 18.2986 26.5638C21.0665 23.4162 23.828 20.2496 26.583 17.0641C27.5731 15.9102 28.5316 14.7073 29.4745 13.4798C29.7042 13.154 29.8823 12.7947 30.0024 12.4146C30.2192 11.8085 29.9465 11.4643 29.3417 11.6272C28.6897 11.852 28.0555 12.1256 27.4447 12.4459Z" fill="#0081FB"></path><path d="M30.461 30.4829C31.8742 29.5518 34.2573 28.0287 36.5463 26.4589C36.925 26.241 37.0531 25.6463 37.3029 25.2336C36.8114 25.1973 36.2508 24.9823 35.8358 25.1371C34.5232 25.5665 33.2518 26.1128 32.0369 26.7695C28.2506 28.9492 24.5151 31.2171 20.7578 33.4473C20.4921 33.5986 20.2504 33.7887 20.0407 34.0113C19.8475 34.2916 19.6815 34.5897 19.545 34.9016C19.8831 34.9926 20.2613 35.2118 20.5573 35.1422C21.2705 34.9748 21.9628 34.7285 22.6214 34.4077C24.975 33.2713 27.204 32.1226 30.461 30.4829Z" fill="#0081FB"></path></svg>