<svg xmlns="http://www.w3.org/2000/svg" width="1920" height="1173" viewBox="0 0 1920 1173" fill="none"><rect width="1920" height="1173" fill="#FFFBF9"></rect><path d="M1569.44 668.461C1579.11 663.187 1597.27 657.754 1601.96 679.466C1604.14 689.58 1609.79 700.725 1631.94 690.26" stroke="black" stroke-width="1.45363"></path><path d="M1402.12 218.974C1401.3 218.568 1400.33 219.128 1400.27 220.041L1399.52 231.67C1399.46 232.692 1400.56 233.375 1401.45 232.863L1412.64 226.402C1413.52 225.89 1413.48 224.597 1412.56 224.143L1402.12 218.974Z" stroke="black" stroke-width="1.6"></path><path d="M203.927 218.286L203.636 219.225L203.927 218.286C202.812 217.94 201.754 218.958 202.056 220.085L205.286 232.14C205.588 233.268 207.014 233.62 207.806 232.763L215.748 224.175C216.488 223.375 216.14 222.076 215.099 221.753L203.927 218.286Z" stroke="black" stroke-width="2"></path><path d="M522.937 170.546L522.967 170.406L522.861 170.309L515.456 163.556L515.349 163.458L515.212 163.502L505.684 166.551L505.546 166.595L505.516 166.736L503.399 176.536L503.369 176.676L503.475 176.773L510.891 183.537L510.998 183.635L511.136 183.591L520.663 180.543L520.801 180.498L520.832 180.357L522.937 170.546ZM511.328 182.072L504.881 176.193L506.716 167.656L514.999 165.005L521.449 170.892L519.612 179.422L511.328 182.072Z" fill="#0081FB" stroke="#0081FB" stroke-width="0.5"></path><path d="M1767.03 457.828L1767.06 457.687L1766.95 457.591L1759.17 450.5L1759.07 450.402L1758.93 450.446L1748.93 453.647L1748.79 453.691L1748.76 453.832L1746.54 464.122L1746.51 464.262L1746.61 464.359L1754.4 471.462L1754.5 471.559L1754.64 471.515L1764.65 468.315L1764.78 468.27L1764.82 468.129L1767.03 457.828ZM1754.85 469.947L1748.06 463.763L1750 454.785L1758.71 451.998L1765.49 458.188L1763.56 467.16L1754.85 469.947Z" fill="#0081FB" stroke="#0081FB" stroke-width="0.5"></path><g clip-path="url(#clip0_39_10)"><path d="M1689.5 193.06C1689.34 192.969 1689.16 192.943 1688.98 192.987C1688.8 193.031 1688.65 193.142 1688.55 193.296C1688.31 193.72 1688.08 194.157 1687.88 194.605C1687.84 194.688 1687.83 194.777 1687.82 194.867C1687.82 194.957 1687.84 195.047 1687.87 195.131C1687.91 195.214 1687.96 195.29 1688.02 195.355C1688.09 195.419 1688.16 195.47 1688.24 195.505C1688.33 195.526 1688.42 195.526 1688.51 195.505C1688.65 195.508 1688.78 195.47 1688.89 195.398C1689 195.325 1689.09 195.221 1689.14 195.098C1689.31 194.702 1689.51 194.318 1689.73 193.95C1689.81 193.799 1689.83 193.625 1689.78 193.461C1689.74 193.297 1689.64 193.155 1689.5 193.06Z" fill="black"></path><path d="M1708.45 194.883C1708.27 194.43 1708.05 193.989 1707.81 193.565C1707.72 193.405 1707.57 193.288 1707.4 193.239C1707.22 193.19 1707.03 193.212 1706.88 193.302C1706.72 193.391 1706.6 193.541 1706.55 193.717C1706.5 193.893 1706.52 194.081 1706.61 194.24C1706.82 194.613 1707.01 195 1707.17 195.398C1707.22 195.526 1707.31 195.635 1707.43 195.712C1707.54 195.788 1707.68 195.829 1707.81 195.827C1707.9 195.825 1707.99 195.807 1708.07 195.773C1708.24 195.705 1708.37 195.572 1708.44 195.406C1708.51 195.239 1708.51 195.051 1708.45 194.883Z" fill="black"></path><path d="M1704.51 189.919C1704.44 189.839 1704.36 189.776 1704.27 189.733C1704.17 189.691 1704.07 189.67 1703.96 189.673C1703.86 189.676 1703.76 189.703 1703.67 189.751C1703.57 189.799 1703.49 189.867 1703.43 189.951C1703.37 190.034 1703.33 190.131 1703.31 190.233C1703.29 190.335 1703.29 190.44 1703.32 190.54C1703.35 190.64 1703.4 190.733 1703.47 190.811C1703.54 190.889 1703.62 190.951 1703.72 190.991C1704.07 191.239 1704.4 191.512 1704.71 191.806C1704.84 191.922 1705.01 191.987 1705.19 191.989C1705.28 191.988 1705.37 191.968 1705.46 191.929C1705.55 191.89 1705.63 191.834 1705.69 191.763C1705.82 191.633 1705.89 191.458 1705.89 191.276C1705.89 191.093 1705.82 190.918 1705.69 190.788C1705.32 190.471 1704.92 190.18 1704.51 189.919Z" fill="black"></path><path d="M1697.32 188.589C1697.3 188.5 1697.27 188.414 1697.23 188.336C1697.18 188.258 1697.12 188.191 1697.04 188.137C1696.97 188.083 1696.89 188.044 1696.8 188.023C1696.71 188.001 1696.62 187.997 1696.53 188.01C1696.05 188.077 1695.57 188.178 1695.11 188.311C1694.94 188.352 1694.8 188.452 1694.71 188.592C1694.61 188.731 1694.57 188.901 1694.6 189.067C1694.62 189.234 1694.7 189.387 1694.83 189.496C1694.96 189.606 1695.12 189.665 1695.29 189.662C1695.35 189.672 1695.42 189.672 1695.48 189.662C1695.89 189.548 1696.31 189.462 1696.74 189.404C1696.83 189.392 1696.92 189.36 1697 189.311C1697.08 189.263 1697.15 189.198 1697.2 189.122C1697.26 189.046 1697.29 188.959 1697.31 188.867C1697.33 188.776 1697.33 188.681 1697.32 188.589Z" fill="black"></path><path d="M1692.92 189.951C1692.87 189.874 1692.81 189.808 1692.73 189.757C1692.66 189.705 1692.57 189.67 1692.48 189.652C1692.39 189.634 1692.3 189.634 1692.21 189.652C1692.12 189.67 1692.04 189.706 1691.96 189.758C1691.56 190.03 1691.17 190.327 1690.81 190.648C1690.74 190.707 1690.68 190.778 1690.64 190.859C1690.6 190.939 1690.58 191.027 1690.57 191.117C1690.57 191.207 1690.58 191.297 1690.61 191.382C1690.64 191.468 1690.68 191.546 1690.74 191.613C1690.81 191.689 1690.88 191.749 1690.97 191.79C1691.06 191.831 1691.16 191.851 1691.26 191.849C1691.42 191.851 1691.58 191.79 1691.71 191.678C1692.03 191.396 1692.37 191.138 1692.73 190.906C1692.8 190.856 1692.87 190.791 1692.92 190.716C1692.97 190.641 1693 190.557 1693.02 190.469C1693.04 190.38 1693.04 190.288 1693.02 190.2C1693 190.111 1692.97 190.026 1692.92 189.951Z" fill="black"></path><path d="M1701.87 189.254C1701.9 189.168 1701.91 189.076 1701.9 188.986C1701.9 188.895 1701.87 188.807 1701.83 188.726C1701.79 188.645 1701.73 188.573 1701.66 188.515C1701.59 188.456 1701.51 188.413 1701.42 188.386C1700.95 188.243 1700.48 188.132 1700 188.053C1699.91 188.034 1699.81 188.033 1699.72 188.051C1699.63 188.068 1699.55 188.104 1699.47 188.155C1699.39 188.207 1699.33 188.274 1699.28 188.351C1699.23 188.429 1699.19 188.515 1699.18 188.606C1699.16 188.697 1699.16 188.79 1699.18 188.88C1699.21 188.97 1699.24 189.055 1699.3 189.13C1699.35 189.204 1699.42 189.267 1699.5 189.314C1699.58 189.361 1699.67 189.392 1699.76 189.404C1700.18 189.477 1700.6 189.577 1701.01 189.705C1701.08 189.715 1701.15 189.715 1701.22 189.705C1701.36 189.707 1701.5 189.664 1701.62 189.584C1701.73 189.503 1701.82 189.388 1701.87 189.254Z" fill="black"></path><path d="M1708.38 201.071H1708.48C1708.64 201.069 1708.8 201.008 1708.93 200.897C1709.05 200.787 1709.13 200.635 1709.15 200.47C1709.22 199.987 1709.25 199.5 1709.25 199.012C1709.25 198.744 1709.25 198.476 1709.25 198.218C1709.23 198.036 1709.15 197.868 1709.01 197.748C1708.87 197.628 1708.69 197.566 1708.51 197.575C1708.42 197.582 1708.33 197.606 1708.25 197.647C1708.17 197.688 1708.1 197.745 1708.04 197.813C1707.98 197.882 1707.94 197.962 1707.91 198.048C1707.88 198.134 1707.87 198.225 1707.88 198.315C1707.88 198.54 1707.88 198.776 1707.88 199.012C1707.88 199.439 1707.85 199.865 1707.79 200.288C1707.78 200.378 1707.78 200.47 1707.81 200.559C1707.83 200.647 1707.87 200.73 1707.92 200.803C1707.98 200.876 1708.05 200.937 1708.12 200.983C1708.2 201.029 1708.29 201.059 1708.38 201.071Z" fill="black"></path><path d="M1706.88 205.381C1707 205.382 1707.11 205.354 1707.21 205.299C1707.31 205.245 1707.4 205.166 1707.46 205.07C1707.73 204.661 1707.97 204.234 1708.18 203.794C1708.26 203.63 1708.26 203.443 1708.2 203.272C1708.14 203.101 1708.02 202.961 1707.86 202.883C1707.77 202.843 1707.69 202.819 1707.6 202.814C1707.5 202.808 1707.41 202.821 1707.33 202.851C1707.24 202.881 1707.16 202.927 1707.1 202.988C1707.03 203.049 1706.97 203.122 1706.93 203.204C1706.75 203.574 1706.54 203.932 1706.31 204.277C1706.24 204.379 1706.19 204.5 1706.18 204.626C1706.18 204.752 1706.2 204.878 1706.26 204.99C1706.32 205.102 1706.41 205.195 1706.52 205.258C1706.63 205.322 1706.75 205.353 1706.88 205.349V205.381Z" fill="black"></path><path d="M1700.45 208.491C1700.03 208.588 1699.61 208.66 1699.18 208.705C1699 208.727 1698.83 208.819 1698.72 208.961C1698.61 209.103 1698.55 209.285 1698.57 209.467C1698.59 209.636 1698.67 209.794 1698.79 209.907C1698.92 210.02 1699.09 210.081 1699.26 210.078H1699.32C1699.81 210.024 1700.29 209.941 1700.77 209.831C1700.94 209.783 1701.09 209.67 1701.19 209.514C1701.28 209.358 1701.31 209.172 1701.27 208.995C1701.23 208.819 1701.12 208.667 1700.96 208.573C1700.81 208.478 1700.62 208.449 1700.45 208.491Z" fill="black"></path><path d="M1687.83 197.339C1687.74 197.33 1687.64 197.339 1687.56 197.366C1687.47 197.393 1687.39 197.436 1687.32 197.494C1687.25 197.552 1687.19 197.623 1687.15 197.703C1687.11 197.783 1687.08 197.871 1687.08 197.961C1687.08 198.315 1687.02 198.669 1687.02 199.033C1687.02 199.162 1687.02 199.291 1687.02 199.43C1687.03 199.607 1687.11 199.773 1687.23 199.895C1687.36 200.017 1687.53 200.084 1687.71 200.084H1687.8C1687.96 200.056 1688.11 199.971 1688.21 199.845C1688.31 199.719 1688.37 199.56 1688.36 199.398V199.055C1688.35 198.741 1688.35 198.426 1688.36 198.111C1688.39 197.939 1688.35 197.763 1688.25 197.619C1688.15 197.476 1688 197.376 1687.83 197.339Z" fill="black"></path><path d="M1694.91 208.223C1694.83 208.193 1694.74 208.181 1694.65 208.186C1694.56 208.192 1694.47 208.214 1694.39 208.254C1694.31 208.293 1694.24 208.348 1694.18 208.415C1694.12 208.483 1694.07 208.561 1694.04 208.647C1694.01 208.732 1694 208.822 1694 208.912C1694.01 209.002 1694.03 209.09 1694.07 209.171C1694.11 209.252 1694.16 209.325 1694.23 209.385C1694.3 209.445 1694.38 209.491 1694.46 209.52C1694.94 209.675 1695.44 209.8 1695.93 209.896H1696.07C1696.24 209.898 1696.41 209.835 1696.54 209.72C1696.67 209.605 1696.75 209.446 1696.76 209.274C1696.78 209.103 1696.73 208.931 1696.63 208.794C1696.52 208.657 1696.37 208.564 1696.2 208.534C1695.77 208.459 1695.34 208.355 1694.91 208.223Z" fill="black"></path><path d="M1690.3 205.96C1690.24 206.023 1690.19 206.098 1690.15 206.181C1690.12 206.264 1690.1 206.353 1690.1 206.443C1690.1 206.533 1690.12 206.622 1690.15 206.705C1690.19 206.787 1690.24 206.862 1690.3 206.925C1690.64 207.268 1691 207.591 1691.38 207.89C1691.49 207.982 1691.63 208.032 1691.78 208.03C1691.89 208.03 1692 208.005 1692.09 207.956C1692.19 207.908 1692.28 207.838 1692.34 207.751C1692.45 207.606 1692.49 207.424 1692.47 207.245C1692.44 207.067 1692.34 206.905 1692.2 206.797C1691.86 206.534 1691.54 206.251 1691.24 205.95C1691.11 205.833 1690.94 205.77 1690.77 205.772C1690.59 205.774 1690.43 205.841 1690.3 205.96Z" fill="black"></path><path d="M1704.29 206.582C1703.94 206.851 1703.59 207.098 1703.21 207.322C1703.06 207.419 1702.95 207.572 1702.91 207.748C1702.87 207.925 1702.9 208.11 1702.99 208.266C1703.05 208.367 1703.14 208.452 1703.24 208.51C1703.34 208.568 1703.46 208.599 1703.58 208.598C1703.7 208.599 1703.83 208.562 1703.93 208.491C1704.35 208.234 1704.75 207.951 1705.13 207.644C1705.27 207.527 1705.36 207.361 1705.38 207.181C1705.39 207.001 1705.34 206.821 1705.23 206.679C1705.12 206.542 1704.95 206.455 1704.78 206.437C1704.6 206.419 1704.42 206.471 1704.29 206.582Z" fill="black"></path><path d="M1687.83 203.172C1687.97 203.505 1688.09 203.837 1688.25 204.148C1688.31 204.259 1688.4 204.351 1688.51 204.416C1688.62 204.48 1688.74 204.513 1688.87 204.513C1688.98 204.513 1689.09 204.488 1689.19 204.437C1689.35 204.353 1689.47 204.209 1689.52 204.036C1689.58 203.863 1689.56 203.676 1689.48 203.515C1689.28 203.135 1689.11 202.741 1688.96 202.336C1688.9 202.165 1688.77 202.027 1688.61 201.95C1688.44 201.874 1688.25 201.866 1688.08 201.928C1687.99 201.962 1687.9 202.017 1687.83 202.089C1687.73 202.181 1687.67 202.297 1687.64 202.425C1687.61 202.552 1687.62 202.685 1687.66 202.808C1687.71 202.936 1687.78 203.054 1687.83 203.172Z" fill="black"></path></g><circle cx="218" cy="808" r="9" stroke="black" stroke-width="2"></circle><path d="M436 490L463 517" stroke="black" stroke-width="2"></path><path d="M1527 441L1505.5 463.765" stroke="black" stroke-width="2"></path><mask id="mask0_39_10" style="mask-type:alpha" maskUnits="userSpaceOnUse" x="0" y="0" width="1920" height="1173"><rect width="1920" height="1173" fill="white"></rect></mask><g mask="url(#mask0_39_10)"><path fill-rule="evenodd" clip-rule="evenodd" d="M1874.54 967.247C1907.41 969.432 1934.16 991.391 1960.01 1011.77C1984.81 1031.33 2010.84 1051.82 2020.07 1082C2029.21 1111.91 2021.07 1143.92 2009.26 1172.89C1998.13 1200.19 1980.02 1224.01 1955.49 1240.4C1931.63 1256.34 1902.89 1258.38 1874.54 1262.89C1839.98 1268.4 1803.73 1285.04 1772.34 1269.59C1739.58 1253.46 1718.55 1217.93 1710.84 1182.29C1703.51 1148.37 1719.64 1115.4 1732 1082.97C1743.7 1052.27 1754.84 1020.56 1780.38 999.836C1806.79 978.387 1840.56 964.989 1874.54 967.247Z" fill="#D3E8DF"></path><path fill-rule="evenodd" clip-rule="evenodd" d="M57.1304 212.953C30.4739 188.818 -6.39906 170.896 -43.8491 192.755C-81.0993 214.496 -91.6372 259.778 -89.3027 298.422C-86.9905 336.698 -70.2069 371.525 -32.7425 376.61C14.8888 383.075 75.39 371.766 101.449 324.312C126.336 278.994 89.0175 241.825 57.1304 212.953Z" fill="#FFEADB"></path></g><defs><clipPath id="clip0_39_10"><rect width="22.25" height="22.0784" fill="white" transform="translate(1687 188)"></rect></clipPath></defs></svg>